<svg width="286" height="83" viewBox="0 0 286 83" fill="none" xmlns="http://www.w3.org/2000/svg"><path d="M24 36C16.56 36 6.08 47.5 6.08 54.77 6 58.04 8.51 60 12.73 60c4.58 0 7.6-2.35 11.27-2.35 3.7 0 6.74 2.35 11.27 2.35 4.13 0 6.72-1.96 6.72-5.23C41.92 47.51 31.44 36 24 36Zm-13.8-1.18c-.97-3.25-3.98-5.36-6.71-4.7-2.73.66-4.16 3.82-3.18 7.06.97 3.25 3.98 5.36 6.71 4.7 2.73-.65 4.15-3.82 3.18-7.06Zm7.94-1.95c2.9-.76 4.35-4.6 3.23-8.75-1.1-4.16-4.35-6.67-7.26-6-2.9.77-4.35 4.61-3.23 8.76 1.11 4.07 4.35 6.76 7.26 5.99Zm26.38-2.75c-2.73-.57-5.74 1.45-6.71 4.7-.98 3.25.44 6.41 3.17 7.07 2.73.57 5.73-1.46 6.72-4.7.97-3.25-.53-6.41-3.18-7.07Zm-14.66 2.75c2.82.76 6.15-1.92 7.26-5.99 1.12-4.06-.34-8-3.23-8.75-2.82-.76-6.15 1.92-7.27 5.99-1.11 4.06.34 7.99 3.24 8.75ZM67.2 40.26h-2.31V61h-4.8V16.2h4.8v20.86l2.24-.9L78.78 16.2h5.5L72.57 35.53l-2.24 2.05 2.62 2.56 13 20.86h-6.09L67.2 40.26ZM86.85 45c0-5.76.98-9.98 2.94-12.67 2.01-2.73 4.85-4.1 8.52-4.1 3.92 0 6.8 1.39 8.64 4.16 1.87 2.78 2.81 6.98 2.81 12.61 0 5.8-1 10.05-3 12.74-2.01 2.68-4.83 4.03-8.45 4.03-3.93 0-6.83-1.39-8.7-4.16-1.84-2.78-2.76-6.98-2.76-12.61Zm4.8 0c0 1.88.1 3.58.32 5.12a15.6 15.6 0 0 0 1.15 3.97 7.26 7.26 0 0 0 2.11 2.62c.86.6 1.88.9 3.08.9a5.4 5.4 0 0 0 4.99-2.95c1.1-2 1.66-5.22 1.66-9.66 0-1.83-.13-3.52-.38-5.06a12.9 12.9 0 0 0-1.15-4.03 6.21 6.21 0 0 0-2.05-2.56 4.98 4.98 0 0 0-3.07-.96c-2.18 0-3.84 1-5 3.01-1.1 2-1.66 5.2-1.66 9.6Zm40.12-11.84h-7.87V61h-4.6V33.16h-7.88V29h20.35v4.16Zm1.7 11.84c0-5.76.99-9.98 2.95-12.67 2-2.73 4.84-4.1 8.51-4.1 3.93 0 6.8 1.39 8.64 4.16 1.88 2.78 2.82 6.98 2.82 12.61 0 5.8-1 10.05-3.01 12.74-2 2.68-4.82 4.03-8.45 4.03-3.92 0-6.82-1.39-8.7-4.16-1.84-2.78-2.75-6.98-2.75-12.61Zm4.8 0c0 1.88.11 3.58.33 5.12a15.6 15.6 0 0 0 1.15 3.97 7.25 7.25 0 0 0 2.11 2.62c.85.6 1.88.9 3.07.9a5.4 5.4 0 0 0 5-2.95c1.1-2 1.66-5.22 1.66-9.66 0-1.83-.13-3.52-.39-5.06a12.9 12.9 0 0 0-1.15-4.03 6.21 6.21 0 0 0-2.05-2.56 4.98 4.98 0 0 0-3.07-.96c-2.17 0-3.84 1-4.99 3.01-1.11 2-1.66 5.2-1.66 9.6Zm39.6-11.84h-10.75V61h-4.61V29h19.97v32h-4.61V33.16ZM188.6 45c0-5.76.98-9.98 2.94-12.67 2.01-2.73 4.85-4.1 8.52-4.1 3.92 0 6.8 1.39 8.64 4.16 1.87 2.78 2.81 6.98 2.81 12.61 0 5.8-1 10.05-3 12.74-2.01 2.68-4.83 4.03-8.45 4.03-3.93 0-6.83-1.39-8.7-4.16-1.84-2.78-2.76-6.98-2.76-12.61Zm4.8 0c0 1.88.1 3.58.32 5.12a15.6 15.6 0 0 0 1.15 3.97A7.25 7.25 0 0 0 197 56.7c.85.6 1.87.9 3.07.9a5.4 5.4 0 0 0 4.99-2.95c1.1-2 1.66-5.22 1.66-9.66 0-1.83-.13-3.52-.38-5.06a12.9 12.9 0 0 0-1.15-4.03 6.21 6.21 0 0 0-2.05-2.56 4.98 4.98 0 0 0-3.07-.96c-2.18 0-3.84 1-5 3.01-1.1 2-1.66 5.2-1.66 9.6Zm27.37-16v9.34c0 1.07.04 2.03.13 2.88.13.86.34 1.6.64 2.24.3.6.72 1.07 1.28 1.41.55.3 1.28.45 2.17.45 1.5 0 2.71-.2 3.65-.58a7.33 7.33 0 0 0 2.18-1.28V29h4.6v32h-4.6V47.56c-.51.38-1.33.81-2.43 1.28-1.07.43-2.52.64-4.36.64-1.23 0-2.34-.15-3.32-.45a6.13 6.13 0 0 1-2.5-1.6 7.97 7.97 0 0 1-1.54-2.94c-.34-1.24-.5-2.8-.5-4.67V29h4.6Zm38.88 4.16h-7.87V61h-4.61V33.16h-7.87V29h20.35v4.16Zm3.54-2.24a15.34 15.34 0 0 1 4.48-1.8c1.8-.42 3.67-.63 5.63-.63 1.8 0 3.22.28 4.29.83a5.85 5.85 0 0 1 2.56 2.18c.64.9 1.04 1.94 1.21 3.13.22 1.15.32 2.37.32 3.65 0 2.56-.06 5.06-.19 7.49-.08 2.43-.13 4.73-.13 6.91 0 1.62.05 3.14.13 4.54.13 1.37.34 2.67.64 3.9h-3.52l-1.08-3.77h-.26a8.62 8.62 0 0 1-2.82 2.88c-1.23.81-2.9 1.22-4.99 1.22a7.5 7.5 0 0 1-5.7-2.37c-1.45-1.62-2.17-3.84-2.17-6.66 0-1.83.3-3.37.9-4.6a8.14 8.14 0 0 1 2.62-3.01c1.15-.77 2.5-1.3 4.03-1.6 1.58-.34 3.33-.51 5.25-.51h1.28c.43 0 .87.02 1.34.06a37 37 0 0 0 .2-3.52c0-2.43-.37-4.14-1.1-5.12-.72-.98-2.04-1.47-3.96-1.47-1.2 0-2.5.19-3.9.57-1.41.35-2.59.8-3.52 1.35l-1.54-3.65Zm13.89 15.49c-.43-.04-.86-.07-1.28-.07a17.52 17.52 0 0 0-4.29.2c-.98.17-1.86.47-2.63.9-.76.42-1.38 1-1.85 1.72a5.36 5.36 0 0 0-.64 2.75c0 1.7.4 3.03 1.22 3.97.85.94 1.94 1.4 3.26 1.4 1.8 0 3.18-.42 4.16-1.27a7.02 7.02 0 0 0 2.05-2.82v-6.78Z" fill="#000"/></svg>