<svg width="18" height="16" viewBox="0 0 18 16" fill="none" xmlns="http://www.w3.org/2000/svg"><path d="M9 6.75c-2.79 0-6.72 4.32-6.72 7.04-.03 1.23.91 1.96 2.5 1.96 1.71 0 2.85-.88 4.22-.88 1.39 0 2.53.88 4.23.88 1.55 0 2.52-.73 2.52-1.96-.03-2.72-3.96-7.04-6.75-7.04Zm-5.17-.44C3.46 5.09 2.33 4.3 1.3 4.55.28 4.79-.25 5.98.1 7.19c.37 1.22 1.5 2.02 2.52 1.77 1.03-.25 1.56-1.43 1.2-2.65Zm2.97-.73c1.09-.29 1.63-1.73 1.22-3.29C7.6.74 6.38-.2 5.29.05 4.21.33 3.66 1.77 4.08 3.33 4.5 4.86 5.7 5.87 6.8 5.58Zm9.9-1.03c-1.03-.22-2.16.54-2.52 1.76-.36 1.22.17 2.4 1.2 2.65 1.01.21 2.14-.55 2.5-1.76.37-1.22-.19-2.4-1.18-2.65Zm-5.5 1.03c1.06.28 2.3-.72 2.72-2.25.42-1.52-.12-3-1.21-3.28-1.06-.29-2.3.72-2.72 2.24-.42 1.53.12 3 1.2 3.29Z" fill="#fff"/></svg>